<svg width="19" height="18" viewBox="0 0 19 18" fill="none" xmlns="http://www.w3.org/2000/svg">
<path d="M9.67724 5.23951C10.262 5.23951 10.9949 4.8442 11.4314 4.31713C11.8267 3.83946 12.115 3.17238 12.115 2.5053C12.115 2.41471 12.1067 2.32412 12.0903 2.25C11.4396 2.27471 10.6573 2.68649 10.1878 3.23827C9.81724 3.65828 9.47958 4.31713 9.47958 4.99244C9.47958 5.09127 9.49606 5.1901 9.50429 5.22304C9.54547 5.23127 9.61135 5.23951 9.67724 5.23951ZM7.61835 15.2045C8.4172 15.2045 8.77133 14.6692 9.76783 14.6692C10.7808 14.6692 11.0032 15.1881 11.8926 15.1881C12.7656 15.1881 13.3503 14.381 13.9021 13.5904C14.5198 12.6845 14.7751 11.795 14.7915 11.7538C14.7339 11.7374 13.0621 11.0538 13.0621 9.13493C13.0621 7.47135 14.3797 6.72191 14.4539 6.66426C13.5809 5.41246 12.255 5.37951 11.8926 5.37951C10.9126 5.37951 10.1137 5.97248 9.61135 5.97248C9.06781 5.97248 8.35131 5.41246 7.50305 5.41246C5.88888 5.41246 4.25 6.74662 4.25 9.2667C4.25 10.8315 4.85943 12.4868 5.60887 13.5574C6.25124 14.4633 6.81126 15.2045 7.61835 15.2045Z" fill="black"/>
</svg>
