<svg width="19" height="18" viewBox="0 0 19 18" fill="none" xmlns="http://www.w3.org/2000/svg">
<path fill-rule="evenodd" clip-rule="evenodd" d="M15.98 9.15339C15.98 8.67475 15.937 8.21452 15.8573 7.77271H9.5V10.3837H13.1327C12.9763 11.2275 12.5007 11.9424 11.7858 12.421V14.1146H13.9673C15.2436 12.9395 15.98 11.2091 15.98 9.15339Z" fill="#4285F4"/>
<path fill-rule="evenodd" clip-rule="evenodd" d="M9.49982 15.75C11.3223 15.75 12.8503 15.1455 13.9671 14.1146L11.7856 12.421C11.1812 12.826 10.408 13.0653 9.49982 13.0653C7.74175 13.0653 6.25368 11.8779 5.72289 10.2825H3.46777V12.0313C4.57846 14.2374 6.86118 15.75 9.49982 15.75Z" fill="#34A853"/>
<path fill-rule="evenodd" clip-rule="evenodd" d="M5.72307 10.2826C5.58807 9.87761 5.51136 9.445 5.51136 9.00011C5.51136 8.55523 5.58807 8.12261 5.72307 7.71761V5.96875H3.46795C3.0108 6.88 2.75 7.91091 2.75 9.00011C2.75 10.0893 3.0108 11.1202 3.46795 12.0315L5.72307 10.2826Z" fill="#FBBC05"/>
<path fill-rule="evenodd" clip-rule="evenodd" d="M9.49982 4.93466C10.4908 4.93466 11.3806 5.27523 12.0802 5.94409L14.0162 4.00807C12.8472 2.91886 11.3193 2.25 9.49982 2.25C6.86118 2.25 4.57846 3.76261 3.46777 5.96864L5.72289 7.7175C6.25368 6.12205 7.74175 4.93466 9.49982 4.93466Z" fill="#EA4335"/>
</svg>
