<svg width="21" height="18" viewBox="0 0 21 18" fill="none" xmlns="http://www.w3.org/2000/svg">
<path d="M20.25 2.62606C19.5325 2.94456 18.7615 3.15906 17.9522 3.25575C18.7785 2.76094 19.4131 1.97687 19.7113 1.0425C18.9386 1.50075 18.0822 1.83387 17.1706 2.01344C16.4418 1.23587 15.401 0.75 14.2505 0.75C11.6676 0.75 9.76956 3.15987 10.3529 5.66156C7.029 5.495 4.08125 3.9025 2.10769 1.48206C1.05956 3.28012 1.56412 5.63231 3.34512 6.82343C2.69025 6.80231 2.07275 6.62275 1.53406 6.32293C1.49019 8.17624 2.81862 9.91012 4.74262 10.2961C4.17956 10.4488 3.56287 10.4846 2.93562 10.3643C3.44425 11.9536 4.92137 13.1097 6.67312 13.1422C4.99125 14.4609 2.87225 15.05 0.75 14.7997C2.52044 15.9348 4.624 16.597 6.88274 16.597C14.3106 16.597 18.5072 10.3237 18.2537 4.69712C19.0353 4.13243 19.7137 3.428 20.25 2.62606Z" fill="#1E8EEE"/>
</svg>
